<?xml version="1.0" encoding="UTF-8" standalone="no"?>
<!-- Created with Inkscape (http://www.inkscape.org/) -->

<svg
   xmlns:dc="http://purl.org/dc/elements/1.1/"
   xmlns:cc="http://creativecommons.org/ns#"
   xmlns:rdf="http://www.w3.org/1999/02/22-rdf-syntax-ns#"
   xmlns:svg="http://www.w3.org/2000/svg"
   xmlns="http://www.w3.org/2000/svg"
   xmlns:sodipodi="http://sodipodi.sourceforge.net/DTD/sodipodi-0.dtd"
   xmlns:inkscape="http://www.inkscape.org/namespaces/inkscape"
   width="210mm"
   height="297mm"
   viewBox="0 0 210 297"
   version="1.1"
   id="svg8"
   inkscape:export-filename="C:\Users\grafo\curso-node\crud\frontend\public\favicon.png"
   inkscape:export-xdpi="96"
   inkscape:export-ydpi="96"
   inkscape:version="0.92.1 r15371"
   sodipodi:docname="favicon.svg">
  <defs
     id="defs2" />
  <sodipodi:namedview
     id="base"
     pagecolor="#ffffff"
     bordercolor="#666666"
     borderopacity="1.0"
     inkscape:pageopacity="0.0"
     inkscape:pageshadow="2"
     inkscape:zoom="5.73125"
     inkscape:cx="36.870568"
     inkscape:cy="1105.9935"
     inkscape:document-units="mm"
     inkscape:current-layer="layer1"
     showgrid="false"
     inkscape:window-width="1366"
     inkscape:window-height="705"
     inkscape:window-x="-8"
     inkscape:window-y="-8"
     inkscape:window-maximized="1" />
  <metadata
     id="metadata5">
    <rdf:RDF>
      <cc:Work
         rdf:about="">
        <dc:format>image/svg+xml</dc:format>
        <dc:type
           rdf:resource="http://purl.org/dc/dcmitype/StillImage" />
        <dc:title></dc:title>
      </cc:Work>
    </rdf:RDF>
  </metadata>
  <g
     inkscape:label="Camada 1"
     inkscape:groupmode="layer"
     id="layer1">
    <g
       id="g4585">
      <ellipse
         ry="2.4236639"
         rx="2.2851691"
         cy="3.505816"
         cx="3.5068111"
         id="path4557"
         style="opacity:0.787;fill:#ff0000;fill-opacity:1;stroke:none;stroke-width:0.52066207;stroke-miterlimit:4;stroke-dasharray:none;stroke-opacity:1" />
      <g
         transform="matrix(0.08247308,0,0,0.0856034,0.89138307,4.427068)"
         id="g5320">
        <path
           style="fill:none;stroke:#000000;stroke-width:2.36500001;stroke-linecap:butt;stroke-linejoin:miter;stroke-miterlimit:4;stroke-dasharray:none;stroke-opacity:1"
           d="M 51.781142,4.8576041 C 63.925599,4.8484996 62.036484,5.403301 65.754174,0.89760639 68.116647,-3.9372032 69.129889,-10.594969 68.213461,-16.961589 64.962195,-29.827814 60.173585,-29.04541 60.173585,-29.04541 l -27.818924,0.183663 -0.192803,-1.822387 18.703148,-0.141106 -0.262524,-7.815424 c -0.18529,-2.154032 -1.529117,-4.23872 -5.034545,-6.194031 -4.001563,-2.141963 -7.782243,-2.601682 -11.541816,-2.900594 -5.939427,0.05857 -11.175556,1.325244 -16.215918,4.903828 -0.862905,1.455323 -1.193771,2.192184 -2.022197,5.356747 l 0.672084,16.621284 c 0.39231,3.789211 2.277546,6.453462 6.95512,8.51133 l 18.8978,-0.0026 c 2.161906,0.459953 6.624589,2.324547 9.304318,9.1955403 z"
           id="path5273"
           inkscape:connector-curvature="0"
           sodipodi:nodetypes="ccccccccccccccccc" />
        <path
           sodipodi:nodetypes="ccccccccccccccccc"
           inkscape:connector-curvature="0"
           id="path5277"
           d="m 12.283349,-24.288143 c -12.14378798,0.124508 -10.2600466,-0.44822 -13.934738,4.092599 -2.3164087,4.857041 -3.2663324,11.5241341 -2.2894535,17.881759 C -0.56748794,10.520964 4.213454,9.6930908 4.213454,9.6930908 l 27.815927,-0.4480061 0.210098,1.8204723 -18.700964,0.318825 0.336783,7.812576 c 0.205746,2.152174 1.569328,4.223998 5.093176,6.145908 4.021738,2.103847 7.806614,2.527618 11.568867,2.790787 5.938599,-0.114993 11.162453,-1.431379 16.168575,-5.057699 0.849048,-1.463455 1.17289,-2.203427 1.971204,-5.37572 L 47.847118,1.0860911 C 47.418829,-2.6992211 45.508362,-5.3454371 40.811442,-7.3587634 L 21.914524,-7.1765385 C 19.748341,-7.6159274 15.268132,-9.4380308 12.52324,-16.283248 Z"
           style="fill:none;stroke:#000000;stroke-width:2.36500001;stroke-linecap:butt;stroke-linejoin:miter;stroke-miterlimit:4;stroke-dasharray:none;stroke-opacity:1" />
      </g>
      <ellipse
         ry="0.34623775"
         rx="0.3000727"
         cy="5.9525633"
         cx="3.9009452"
         id="path4569"
         style="opacity:0.994;fill:#000000;fill-opacity:0.92488266;stroke:none;stroke-width:0.68923956;stroke-miterlimit:4;stroke-dasharray:none;stroke-opacity:1" />
      <ellipse
         style="opacity:0.994;fill:#000000;fill-opacity:0.92488266;stroke:none;stroke-width:0.68923956;stroke-miterlimit:4;stroke-dasharray:none;stroke-opacity:1"
         id="ellipse4571"
         cx="3.119602"
         cy="1.1900629"
         rx="0.3000727"
         ry="0.34623775" />
      <ellipse
         ry="0.34623775"
         rx="0.3000727"
         cy="2.944334"
         cx="5.7510085"
         id="ellipse4573"
         style="opacity:0.994;fill:#000000;fill-opacity:0.92488266;stroke:none;stroke-width:0.68923956;stroke-miterlimit:4;stroke-dasharray:none;stroke-opacity:1" />
      <ellipse
         style="opacity:0.994;fill:#000000;fill-opacity:0.92488266;stroke:none;stroke-width:0.68923956;stroke-miterlimit:4;stroke-dasharray:none;stroke-opacity:1"
         id="ellipse4575"
         cx="1.3653306"
         cy="4.1446247"
         rx="0.3000727"
         ry="0.34623775" />
    </g>
  </g>
</svg>
